<?xml version="1.0" encoding="utf-8"?><svg viewBox="0 0 502.66 502.66" xmlns="http://www.w3.org/2000/svg" xmlns:xlink="http://www.w3.org/1999/xlink"><style>:root>svg{display:none}:root>svg:target{display:block}</style><svg fill-rule="evenodd" viewBox="0 0 100 100" id="calendar" xmlns="http://www.w3.org/2000/svg"><path d="M85.94 67.9v-.06a1.49 1.49 0 000-.33v-50A1.5 1.5 0 0084.5 16h-10a1.49 1.49 0 00-.5.09 1.49 1.49 0 00-.5-.09H73V9.5a1.5 1.5 0 00-3 0V16H52V9.5a1.5 1.5 0 00-3 0V16H31V9.5a1.5 1.5 0 00-3 0V16H16.5a1.5 1.5 0 00-1.5 1.5v67a1.5 1.5 0 001.5 1.5h49a1.49 1.49 0 00.5-.09h.05a1.49 1.49 0 00.42-.25l19-17a1.5 1.5 0 00.25-.3v-.07a1.48 1.48 0 00.22-.39zM28 19v3.5a1.5 1.5 0 003 0V19h18v3.5a1.5 1.5 0 003 0V19h18v3.5a1.5 1.5 0 003 0V19h.5a1.49 1.49 0 00.5-.09 1.49 1.49 0 00.5.09H83v15H18V19zM18 37h65v29H65.5a1.5 1.5 0 00-1.5 1.5V83H18zm49 44.15V69h13.57z"/><path d="M33.5 46h-10a1.5 1.5 0 000 3h10a1.5 1.5 0 000-3zm11 3h11a1.5 1.5 0 000-3h-11a1.5 1.5 0 000 3zm22 0h11a1.5 1.5 0 000-3h-11a1.5 1.5 0 000 3zm-33 8h-10a1.5 1.5 0 000 3h10a1.5 1.5 0 000-3zm22 0h-11a1.5 1.5 0 000 3h11a1.5 1.5 0 000-3zm11 3h11a1.5 1.5 0 000-3h-11a1.5 1.5 0 000 3zm-33 8h-10a1.5 1.5 0 000 3h10a1.5 1.5 0 000-3zm21 0h-10a1.5 1.5 0 000 3h10a1.5 1.5 0 000-3z"/></svg><svg fill-rule="evenodd" viewBox="0 0 100 100" id="earth" xmlns="http://www.w3.org/2000/svg"><path d="M85.1 72.7C89.5 66.2 92 58.4 92 50 92 27.4 73.6 9 51 9S10 27.4 10 50s18.4 41 41 41c13.8 0 26-6.9 33.5-17.4l.2-.2c.1-.1.3-.4.4-.7zM89 50c0 4.2-.7 8.2-1.9 11.9.1-3.8-.5-7.6-2.2-9.7-1.8-2.2-4.1-2.1-5.9-1.9-2.5.2-4.9.4-7.7-5.5-2.2-4.7-.1-6.5 3.5-8.9 2.6-1.7 6-4.1 3.6-8.4-2.2-3.9-5.5-3.8-8.2-3.8-1.7 0-3.3 0-4.7-.9-2.2-1.4-3.9-4.4-5.6-7.2-.6-1-1.2-2-1.7-2.9C75.8 16.2 89 31.6 89 50zM40.4 13.5l.1.1c2.3 1.9 8 7.8 7.4 12.8-.2 1.7-3.6 3.1-6.5 4.5-4.1 1.8-8.8 3.9-9.7 8-.6 2.7.6 5.7 3.8 9.3 7.2 8.2 13.2 10 17.6 11.4 3.3 1 5.5 1.7 7 4.6 1.9 3.5.5 4.9-3.3 8.2-3.5 3.1-8.3 7.3-8.9 15.6-2.5-.2-4.9-.6-7.3-1.3.4-12-4.7-15.9-8.5-18.8-1.2-.9-2.3-1.8-2.9-2.7-.5-.8.6-2.7 1.6-4.4 1.5-2.6 3.2-5.6 2.1-8.5-.8-2.1-2.8-3.6-6.2-4.8-11.4-3.8-9.9-14-9.8-14.4V33c4.9-9.4 13.3-16.5 23.5-19.5zM13 50c0-3.8.6-7.5 1.6-10.9 1.1 4 4 8.8 11.3 11.2 2.5.8 4 1.8 4.4 3 .6 1.6-.7 3.8-1.9 6-1.5 2.5-3 5.2-1.6 7.5.8 1.4 2.2 2.4 3.6 3.5 3.3 2.5 7.4 5.6 7.3 15.4C23.3 80.2 13 66.3 13 50zm38 38c.5-7 4.4-10.4 7.8-13.5 3.4-3 7-6.2 3.9-11.9-2.2-4-5.2-4.9-8.8-6-4.2-1.3-9.5-3-16.2-10.5-2.4-2.7-3.5-5-3.1-6.7.6-2.6 4.5-4.3 8-5.9 4-1.8 7.9-3.5 8.3-6.8.7-5.8-4.4-11.6-7-14.1 2.3-.4 4.7-.7 7.1-.7 1.1 0 2.2.1 3.2.1.1.1.1.2.2.2 1 1.1 2.1 2.9 3.2 4.7 1.7 3 3.7 6.4 6.5 8.2 2.1 1.4 4.3 1.4 6.3 1.3 2.8 0 4.3.1 5.5 2.3 1 1.7.3 2.4-2.7 4.5-3.2 2.1-7.9 5.4-4.6 12.7 3.6 7.8 7.6 7.5 10.6 7.2 1.7-.1 2.5-.2 3.3.8 2.6 3.4 1.5 14.1.2 17.1C75.9 81.2 64.2 88 51 88z"/></svg><svg viewBox="0 0 502.664 502.664" id="icon" xmlns="http://www.w3.org/2000/svg"><path d="M153.821 358.226L0 274.337v-46.463l153.821-83.414v54.574L46.636 250.523l107.185 53.431v54.272zm26.273 29.358L282.103 115.08h32.227L212.084 387.584h-31.99zm168.749-29.358v-54.272l107.164-52.999-107.164-52.59v-53.927l153.821 83.522v46.183l-153.821 84.083z"/></svg><svg fill-rule="evenodd" viewBox="0 0 100 100" id="lamp" xmlns="http://www.w3.org/2000/svg"><path d="M69.294 11.442c-6.788-5.594-15.724-7.82-24.512-6.109-11.831 2.303-21.333 12.29-23.107 24.287-1.447 9.79 2.031 19.567 9.304 26.155 3.277 2.968 5.254 7.243 5.568 12.039.006.087.023.171.042.254v15.039a1.5 1.5 0 001.5 1.5h1.495c.609 4.359 3.813 7.697 7.672 7.697h6.81c3.859 0 7.062-3.338 7.671-7.697h1.495a1.5 1.5 0 001.5-1.5V67.828l.001-.01c0-4.462 2.026-8.771 5.706-12.133a29.341 29.341 0 009.538-21.61 29.23 29.23 0 00-10.683-22.633zM45.357 39.91h-2.305c-1.271 0-2.305-1.034-2.305-2.305s1.034-2.305 2.305-2.305 2.305 1.034 2.305 2.305v2.305zm10.609-2.305a2.308 2.308 0 012.306-2.305c1.271 0 2.305 1.034 2.305 2.305s-1.034 2.305-2.305 2.305h-2.303l-.003-2.305zm-.903 31.606h6.67v12.396H60.36l-.01-.001-.01.001H40.982l-.01-.001-.01.001H39.59V69.211h14.366m-5.599-3V42.91h4.617l.034 23.301h-4.651zm5.709 23.093h-6.81c-2.238 0-4.117-2.004-4.637-4.697h16.083c-.519 2.693-2.398 4.697-4.636 4.697zm14.35-35.833c-3.872 3.537-6.164 8.013-6.593 12.74h-5.816l-.033-23.301h2.298a5.311 5.311 0 005.305-5.305 5.311 5.311 0 00-5.305-5.305 5.312 5.312 0 00-5.306 5.307l.003 2.303h-4.612v-2.305a5.311 5.311 0 00-5.305-5.305 5.311 5.311 0 00-5.305 5.305 5.311 5.311 0 005.305 5.305h2.305v23.301h-5.972c-.636-5.005-2.864-9.465-6.393-12.66-6.528-5.914-9.65-14.696-8.35-23.493 1.591-10.76 10.108-19.716 20.712-21.781 7.908-1.538 15.938.458 22.03 5.48a26.245 26.245 0 019.592 20.319 26.328 26.328 0 01-8.56 19.395z"/></svg><svg fill-rule="evenodd" viewBox="0 0 100 100" id="lamp-2" xmlns="http://www.w3.org/2000/svg"><path d="M65.24 22.32a1.5 1.5 0 102.51-1.64A21.61 21.61 0 0049.5 11a1.5 1.5 0 000 3 18.62 18.62 0 0115.74 8.32z"/><path d="M79 32.32C79 16.69 65.78 4 49.5 4S20 16.69 20 32.32a28.38 28.38 0 0016 25.21V70h-2.5a1.5 1.5 0 00-1.5 1.5v14a1.5 1.5 0 001.5 1.5h4.06c.55 5.87 5.92 10.5 12.44 10.5S61.89 92.87 62.44 87h4.06a1.5 1.5 0 001.5-1.5v-14a1.5 1.5 0 00-1.5-1.5H63V57.53a28.38 28.38 0 0016-25.21zM50 94.5c-4.86 0-8.87-3.28-9.42-7.5h18.85c-.56 4.22-4.57 7.5-9.43 7.5zM65 84H35V73h30zM47.26 69.85l-3.57-35.16a10.41 10.41 0 0011.59 0l-3.71 35.15a1.48 1.48 0 000 .16h-4.31a1.46 1.46 0 000-.15zm7.31.15l4.28-40.49A7.58 7.58 0 0059 28a1.5 1.5 0 00-1.42-1.5A1.48 1.48 0 0056 27.84L55.88 29c-.58 2.52-3.22 4.42-6.38 4.42s-5.83-1.88-6.39-4.42L43 27.85a1.5 1.5 0 00-3 .15 7.6 7.6 0 00.14 1.45L44.26 70H39V56.58a1.5 1.5 0 00-.88-1.37A25.42 25.42 0 0123 32.32C23 18.35 34.88 7 49.5 7S76 18.35 76 32.32a25.42 25.42 0 01-15.12 22.9 1.5 1.5 0 00-.88 1.36V70z"/></svg><svg fill-rule="evenodd" viewBox="0 0 100 100" id="mind" xmlns="http://www.w3.org/2000/svg"><path d="M84.43 34.59a34.43 34.43 0 00-68.78 2.23 34.85 34.85 0 00.24 4.07l-7 14.2a3.74 3.74 0 003.25 5.39c1.91.06 3.23.1 4.17.1v3.76c0 11.71 2.89 18.49 17.59 18.49l6.37.21V91a1.5 1.5 0 003 0v-9.4a1.5 1.5 0 00-1.45-1.5l-7.87-.26c-11.36 0-14.64-3.47-14.64-15.49v-5.31a1.5 1.5 0 00-1.64-1.5h-.2c-.3 0-1.38 0-5.25-.09a.73.73 0 01-.62-.36.72.72 0 010-.71l7.19-14.61a1.5 1.5 0 00.14-.86 31.77 31.77 0 01-.27-4.14 31.43 31.43 0 1152.22 23.5 1.5 1.5 0 00-.51 1.13v29.42a1.48 1.48 0 001.5 1.5 1.5 1.5 0 001.5-1.5V62.06a34.07 34.07 0 0011.06-27.47z"/><path d="M73.46 32.35l-6-5a1.5 1.5 0 00-1.92 0l-6 5a1.5 1.5 0 101.92 2.3L65 31.71v.24A14.2 14.2 0 0150.68 46a14.36 14.36 0 01-10.13-4.12 1.5 1.5 0 10-2.1 2.12A17.37 17.37 0 0068 31.95v-.26l3.55 3a1.5 1.5 0 101.92-2.3zm-31.81-.81a1.5 1.5 0 00-2.11-.19l-3.43 2.86a14.84 14.84 0 01-.11-1.7A14.43 14.43 0 0150.33 18a14.14 14.14 0 0110.11 4.23 1.5 1.5 0 002.13-2.11A17.12 17.12 0 0050.33 15 17.44 17.44 0 0033 32.51a17.85 17.85 0 00.11 1.88l-3.65-3a1.5 1.5 0 00-1.92 2.3l6 5a1.5 1.5 0 001.92 0l6-5a1.5 1.5 0 00.19-2.15z"/></svg></svg>